
<svg width="512" height="512" viewBox="0 0 512 512" fill="none" xmlns="http://www.w3.org/2000/svg">
  <path d="M432 352H80C71.16 352 64 344.84 64 336V208C64 199.16 71.16 192 80 192H432C440.84 192 448 199.16 448 208V336C448 344.84 440.84 352 432 352Z" fill="#FFC107"/>
  <path d="M426.67 170.67H85.33C76.49 170.67 69.33 177.83 69.33 186.67V320C69.33 328.84 76.49 336 85.33 336H426.67C435.51 336 442.67 328.84 442.67 320V186.67C442.67 177.83 435.51 170.67 426.67 170.67Z" fill="#FFC107"/>
  <path d="M458.67 256C458.67 362.06 372.06 448.67 266 448.67C159.94 448.67 73.33 362.06 73.33 256C73.33 149.94 159.94 63.33 266 63.33C372.06 63.33 458.67 149.94 458.67 256Z" fill="#FFC107" fill-opacity="0.3"/>
  <path d="M64 352H448V384C448 392.84 440.84 400 432 400H80C71.16 400 64 392.84 64 384V352Z" fill="#455A64"/>
  <path d="M128 400H96V416C96 424.84 103.16 432 112 432H128V400Z" fill="#455A64"/>
  <path d="M416 400H384V432H400C408.84 432 416 424.84 416 416V400Z" fill="#455A64"/>
  <path d="M64 208V224H448V208C448 199.16 440.84 192 432 192H80C71.16 192 64 199.16 64 208Z" fill="#455A64"/>
  <path d="M368 272H400V336H368V272Z" fill="#455A64"/>
  <path d="M112 272H144V336H112V272Z" fill="#455A64"/>
  <circle cx="128" cy="384" r="24" fill="#263238"/>
  <circle cx="128" cy="384" r="16" fill="#90A4AE"/>
  <circle cx="384" cy="384" r="24" fill="#263238"/>
  <circle cx="384" cy="384" r="16" fill="#90A4AE"/>
  <path d="M304 320H208C199.16 320 192 312.84 192 304V256C192 247.16 199.16 240 208 240H304C312.84 240 320 247.16 320 256V304C320 312.84 312.84 320 304 320Z" fill="#ECEFF1"/>
  <path d="M384 176H128L152 112H360L384 176Z" fill="#FFC107"/>
  <path d="M360 112L336 48H176L152 112H360Z" fill="#455A64"/>
</svg>
